<svg width="1512" height="2606" viewBox="0 0 1512 2606" fill="none" xmlns="http://www.w3.org/2000/svg">
<g opacity="0.2">
<g clip-path="url(#clip0_894_5241)">
<path d="M-2038.23 3103.62C-3505.07 2566.14 -4261.39 933.304 -3727.5 -543.422C-3193.61 -2020.15 -1571.7 -2781.55 -104.854 -2244.07C1361.99 -1706.59 2118.3 -73.7501 1584.41 1402.98C1050.52 2879.7 -571.392 3641.1 -2038.23 3103.62Z" stroke="#F0F0F0"/>
<path d="M-2012.27 2805.35C-3427 2141.21 -4039.07 448.225 -3379.37 -976.036C-2719.67 -2400.3 -1038.01 -3016.49 376.72 -2352.35C1791.45 -1688.21 2403.53 4.77576 1743.82 1429.04C1084.12 2853.3 -597.537 3469.49 -2012.27 2805.35Z" stroke="#E9E9E9"/>
<path d="M-1966.8 2516.24C-3318.65 1730.49 -3781.83 -9.75562 -3001.34 -1370.71C-2220.84 -2731.67 -492.238 -3197.97 859.611 -2412.22C2211.46 -1626.47 2674.64 113.774 1894.15 1474.73C1113.66 2835.69 -614.951 3301.99 -1966.8 2516.24Z" stroke="#E1E1E1"/>
<path d="M-1902.7 2237.96C-3181.39 1336.59 -3492.15 -437.68 -2596.8 -1724.98C-1701.46 -3012.27 60.9393 -3325.12 1339.62 -2423.75C2618.3 -1522.38 2929.06 251.89 2033.72 1539.19C1138.37 2826.48 -624.023 3139.33 -1902.7 2237.96Z" stroke="#DADADA"/>
<path d="M-1820.99 1972.1C-3016.77 961.966 -3172.74 -832.815 -2169.36 -2036.65C-1165.98 -3240.49 616.794 -3397.51 1812.58 -2387.37C3008.36 -1377.24 3164.33 417.546 2160.95 1621.38C1157.57 2825.22 -625.206 2982.24 -1820.99 1972.1Z" stroke="#D2D2D2"/>
<circle cx="2836.44" cy="2836.44" r="2835.94" transform="matrix(-0.70473 -0.709476 0.70473 -0.709476 275.781 3732.92)" stroke="#CBCBCB"/>
<path d="M-1609.39 1483.56C-2612.77 279.728 -2456.8 -1515.05 -1261.01 -2525.19C-65.2311 -3535.33 1717.54 -3378.31 2720.92 -2174.47C3724.31 -970.633 3568.33 824.147 2372.55 1834.29C1176.77 2844.42 -606.005 2687.4 -1609.39 1483.56Z" stroke="#C3C3C3"/>
<path d="M-1482.15 1263.55C-2377.5 -23.746 -2066.74 -1798.01 -788.058 -2699.38C490.624 -3600.76 2253.02 -3287.91 3148.36 -2000.61C4043.71 -713.316 3732.95 1060.95 2454.27 1962.32C1175.59 2863.7 -586.81 2550.85 -1482.15 1263.55Z" stroke="#BCBCBC"/>
<path d="M-1342.59 1061.28C-2123.08 -299.682 -1659.9 -2039.93 -308.049 -2825.68C1043.8 -3611.42 2772.41 -3145.13 3552.9 -1784.17C4333.39 -423.212 3870.21 1317.04 2518.36 2102.78C1166.51 2888.53 -562.093 2422.23 -1342.59 1061.28Z" stroke="#B4B4B4"/>
<path d="M-1192.26 877.766C-1851.96 -546.496 -1239.89 -2239.48 174.842 -2903.62C1589.57 -3567.76 3271.23 -2951.57 3930.93 -1527.31C4590.63 -103.046 3978.56 1589.94 2563.83 2254.08C1149.1 2918.22 -532.561 2302.03 -1192.26 877.766Z" stroke="#ADADAD"/>
<path d="M-1032.85 713.884C-1566.74 -762.843 -810.425 -2395.68 656.416 -2933.16C2123.26 -3470.64 3745.17 -2709.24 4279.06 -1232.51C4812.95 244.211 4056.64 1877.05 2589.8 2414.53C1122.95 2952.01 -498.961 2190.61 -1032.85 713.884Z" stroke="#A5A5A5"/>
<path d="M-866.083 570.358C-1270.1 -947.595 -375.301 -2507.86 1132.49 -2914.59C2640.28 -3321.32 4190.11 -2420.51 4594.12 -902.553C4998.13 615.4 4103.34 2175.66 2595.55 2582.39C1087.76 2989.13 -462.07 2088.31 -866.083 570.358Z" stroke="#9E9E9E"/>
<path d="M-693.751 447.754C-964.814 -1099.87 61.6527 -2575.68 1598.92 -2848.57C3136.18 -3121.46 4602.12 -2088.08 4873.19 -540.458C5144.25 1007.17 4117.78 2482.98 2580.52 2755.87C1043.26 3028.75 -422.689 1995.38 -693.751 447.754Z" stroke="#969696"/>
<path d="M-517.687 346.483C-653.736 -1219.04 496.589 -2599.17 2051.63 -2736.13C3606.67 -2873.1 4977.57 -1715.03 5113.62 -149.511C5249.67 1416.01 4099.34 2796.14 2544.3 2933.11C989.265 3070.07 -381.638 1912 -517.687 346.483Z" stroke="#8F8F8F"/>
<path d="M-339.752 266.789C-339.752 -1304.71 925.678 -2578.66 2486.66 -2578.66C4047.64 -2578.66 5313.07 -1304.71 5313.07 266.789C5313.07 1838.29 4047.64 3112.24 2486.66 3112.24C925.678 3112.24 -339.752 1838.29 -339.752 266.789Z" stroke="#878787"/>
<path d="M-161.821 208.753C-25.7715 -1356.77 1345.13 -2514.83 2900.17 -2377.87C4455.21 -2240.9 5605.54 -860.773 5469.49 704.747C5333.44 2270.27 3962.53 3428.33 2407.5 3291.37C852.456 3154.41 -297.87 1774.27 -161.821 208.753Z" stroke="#808080"/>
<path d="M14.231 172.294C285.294 -1375.33 1751.24 -2408.71 3288.5 -2135.82C4825.77 -1862.93 5852.23 -387.119 5581.17 1160.51C5310.11 2708.13 3844.16 3741.51 2306.9 3468.62C769.635 3195.73 -256.832 1719.92 14.231 172.294Z" stroke="#787878"/>
<path d="M186.544 157.163C590.557 -1360.79 2140.38 -2261.61 3648.18 -1854.87C5155.97 -1448.14 6050.76 112.122 5646.75 1630.07C5242.74 3148.03 3692.91 4048.84 2185.12 3642.11C677.325 3235.38 -217.469 1675.12 186.544 157.163Z" stroke="#717171"/>
<path d="M353.284 162.955C887.173 -1313.77 2509.09 -2075.17 3975.93 -1537.69C5442.77 -1000.21 6199.08 632.628 5665.2 2109.35C5131.31 3586.08 3509.39 4347.48 2042.55 3810C575.709 3272.52 -180.604 1639.68 353.284 162.955Z" stroke="#696969"/>
<path d="M512.663 189.098C1172.36 -1235.16 2854.02 -1851.36 4268.75 -1187.22C5683.48 -523.073 6295.56 1169.91 5635.86 2594.17C4976.16 4018.43 3294.5 4634.63 1879.77 3970.49C465.038 3306.34 -147.038 1613.36 512.663 189.098Z" stroke="#626262"/>
<path d="M662.945 234.869C1443.44 -1126.09 3172.04 -1592.39 4523.89 -806.638C5875.74 -20.8908 6338.92 1719.36 5558.43 3080.31C4777.94 4441.27 3049.33 4907.57 1697.48 4121.82C345.633 3336.07 -117.547 1595.83 662.945 234.869Z" stroke="#5A5A5A"/>
<path d="M802.467 299.396C1697.81 -987.9 3460.21 -1300.75 4738.89 -399.377C6017.57 501.995 6328.33 2276.26 5432.99 3563.56C4537.64 4850.85 2775.25 5163.7 1496.56 4262.33C217.882 3360.96 -92.8767 1586.69 802.467 299.396Z" stroke="#535353"/>
<path d="M929.647 381.663C1933.03 -822.174 3715.8 -979.196 4911.58 30.9422C6107.37 1041.08 6263.34 2835.86 5259.96 4039.7C4256.58 5243.53 2473.8 5400.56 1278.02 4390.42C82.2387 3380.28 -73.7347 1585.5 929.647 381.663Z" stroke="#4B4B4B"/>
<circle cx="2836.44" cy="2836.44" r="2835.94" transform="matrix(0.70473 -0.709476 0.70473 0.709476 -956.286 2492.55)" stroke="#444444"/>
<path d="M1141.12 594.687C2336.91 -415.45 4119.68 -258.428 5123.06 945.409C6126.44 2149.25 5970.47 3944.03 4774.69 4954.16C3578.91 5964.3 1796.13 5807.28 792.751 4603.44C-210.631 3399.61 -54.6573 1604.83 1141.12 594.687Z" stroke="#3C3C3C"/>
<path d="M1222.77 722.776C2501.45 -178.597 4263.85 134.253 5159.19 1421.55C6054.54 2708.84 5743.78 4483.11 4465.1 5384.48C3186.42 6285.86 1424.02 5973.01 528.675 4685.71C-366.669 3398.41 -55.9095 1624.15 1222.77 722.776Z" stroke="#353535"/>
<path d="M1286.79 863.285C2638.64 77.5386 4367.25 543.835 5147.74 1904.79C5928.23 3265.75 5465.05 5006 4113.2 5791.74C2761.36 6577.49 1032.75 6111.2 252.256 4750.24C-528.236 3389.28 -65.056 1649.03 1286.79 863.285Z" stroke="#2D2D2D"/>
</g>
</g>
<defs>
<clipPath id="clip0_894_5241">
<rect y="-342" width="1512" height="3300" fill="white"/>
</clipPath>
</defs>
</svg>
