<svg width="172" height="98" viewBox="0 0 172 98" fill="none" xmlns="http://www.w3.org/2000/svg">
<g clip-path="url(#clip0_927_471)">
<path d="M49.9499 60.938C50.0248 60.7377 50.1273 60.5488 50.2543 60.3766C50.5813 60.051 50.9534 59.7759 51.5284 59.2875C50.1585 59.4278 49.6342 60.4103 48.7434 60.8987L48.3826 60.1745C47.4467 60.6853 46.6236 61.4993 45.4623 61.2018L43.382 62.5772L43.3312 62.0158L42.7675 62.2628V64.8227L41.4595 65.9062C40.5406 65.4346 41.2227 64.8339 41.1156 64.3343C41.0138 63.8036 40.9797 63.2623 41.0141 62.7231C40.7717 61.9653 40.0952 61.9821 39.3567 62.027C39.6104 61.0502 40.6646 61.1513 41.1833 60.4271C37.671 57.957 33.6795 56.3739 30.1222 54.0386L29.4174 54.5102C31.1369 55.0715 34.1193 57.0083 34.9085 58.0188C34.4463 58.5802 33.9332 58.4118 33.4146 58.1198C32.552 57.6483 31.6782 57.1992 30.8438 56.6939C28.8875 55.5207 26.9707 54.2912 25.0088 53.1292C24.0504 52.5678 23.013 52.1355 22.0377 51.5966C21.0624 51.0577 20.0307 50.4177 19.0216 49.8507C18.3789 49.4858 17.7023 49.1658 17.054 48.8066C16.8292 48.6584 16.6162 48.4933 16.417 48.3125C16.213 48.1303 15.9942 47.965 15.763 47.8185C14.8609 47.3414 13.9476 46.8866 13.04 46.4319C12.5495 46.1849 12.059 45.9547 11.3487 45.6235C11.3487 46.314 11.3487 46.8137 11.3148 47.3077C11.281 47.8017 11.095 48.3911 11.0161 48.9301C10.9371 49.469 10.892 50.0528 10.8413 50.5188C11.3149 50.5299 11.7842 50.6113 12.2338 50.7602C13.6658 51.4956 15.0526 52.2983 16.4564 53.1123C16.6199 53.2078 16.6706 53.4941 16.7327 53.6063L18.8524 54.8751L19.2865 54.7459L19.5346 55.2343C20.0828 55.5289 20.6051 55.8688 21.0962 56.2504C21.6975 56.7484 22.345 57.1882 23.0299 57.5641C24.2139 58.2883 25.3358 59.1247 26.5197 59.8545C27.3766 60.3766 28.1095 61.1232 29.1976 61.2804C29.6027 61.4012 29.9646 61.635 30.2405 61.9541C31.3681 63.0768 32.8282 63.7 34.1475 64.5196C34.9198 65.0023 35.7824 65.3504 36.4025 66.0634C36.7013 66.4226 37.1636 66.3047 37.4568 66.4676C38.0346 66.8701 38.5676 67.3331 39.0466 67.8485C38.4807 68.6216 37.6953 69.2082 36.7915 69.5327C36.6884 69.5885 36.5739 69.6205 36.4567 69.6263C36.3394 69.6321 36.2223 69.6117 36.1141 69.5664C36.0058 69.5211 35.9092 69.4522 35.8313 69.3648C35.7534 69.2773 35.6962 69.1735 35.664 69.0611C35.9741 68.1124 36.8592 68.6289 37.5752 68.3875C36.6619 67.5173 35.4385 67.3377 34.4632 66.4619L30.0319 66.9672L30.0996 65.7041C30.4033 65.8898 30.7671 65.952 31.1156 65.8778C31.4641 65.8036 31.7705 65.5987 31.9713 65.3055C30.7367 64.9294 29.5076 65.3504 28.3406 65.0248V64.3624L30.4491 64.1491C29.705 63.481 29.1525 63.3519 28.476 63.6214C27.6394 63.9991 26.7056 64.1089 25.8037 63.9357L25.9672 63.0038C25.3358 62.2235 24.4337 62.8354 23.5881 62.4425L23.4922 61.4376L25.3752 60.7134C24.3717 59.9275 23.1653 60.6404 22.1617 60.2531C21.5134 59.8433 21.9419 59.3436 22.0715 58.7261C21.7164 58.7261 21.4176 58.7261 21.1244 58.7261C20.4817 58.7823 19.8334 58.9114 19.1907 58.9114C18.9257 58.9114 18.6607 58.6644 18.1872 58.423L19.5684 57.3507C18.9708 56.8287 18.8073 56.8287 15.9039 57.4069C15.8029 57.3212 15.7155 57.2209 15.6446 57.1094C15.6048 56.9604 15.5784 56.8082 15.5657 56.6546L16.6932 55.4028C15.5327 55.1613 14.324 55.3321 13.2768 55.8855L12.8032 54.6393L8.67078 53.8028C8.6144 53.1516 8.6144 53.1516 9.18381 52.579C9.74757 52.259 10.644 52.8597 11.0499 51.8941L8.79481 50.1539L9.83778 49.0311C9.98436 47.3021 10.7567 45.5506 9.39804 44.0797L11.0217 42.1598C11.4688 42.1389 11.9169 42.1672 12.3578 42.244C13.1681 42.463 14.0224 42.463 14.8328 42.244C15.763 41.9802 16.7383 41.8623 17.6516 41.6265C18.4183 41.4356 19.1569 41.1493 19.9067 40.9416C20.6565 40.7339 21.3443 40.6104 22.0715 40.4645C22.2519 40.4308 22.4887 40.5262 22.6353 40.4645C23.8474 39.729 25.3019 40.0996 26.5817 39.5831C26.964 39.1204 27.2215 38.5683 27.33 37.979C27.4386 37.3896 27.3944 36.7825 27.2018 36.2148C27.1009 35.6402 27.0519 35.0578 27.0553 34.4745C27.3983 34.1624 27.7767 33.8911 28.1828 33.6661C29.3861 33.0631 30.6636 32.6195 31.9826 32.3469C32.4666 32.1921 32.9393 32.0045 33.3976 31.7855C33.9164 31.669 34.4416 31.5827 34.9706 31.5273L33.2793 30.7301L33.5668 29.6579L33.1214 28.406C32.7775 28.6643 32.5013 28.8944 32.2081 29.0909C30.1334 30.5112 28.0644 31.9315 25.9728 33.3237C25.7912 33.5044 25.5625 33.6312 25.3126 33.6897C25.0626 33.7482 24.8012 33.7361 24.5578 33.6549L25.6402 31.662C25.9841 31.5329 26.3844 31.4094 26.7677 31.241C27.1132 31.0948 27.4389 30.9062 27.7374 30.6796C28.6394 29.9554 29.4964 29.1807 30.3984 28.4341C32.0333 27.1261 33.6626 25.8181 35.337 24.555C36.2998 23.8213 37.305 23.1446 38.3475 22.5284C40.6075 21.1337 42.7376 19.5405 44.7125 17.7679C46.026 16.6451 47.4806 15.7189 48.8956 14.7421C50.7391 13.4789 52.5658 12.2046 54.2852 10.7675C55.0361 10.2312 55.8173 9.73826 56.6249 9.29106C57.2394 8.88125 57.8313 8.43215 58.4233 7.98866C60.3627 6.5403 62.2908 5.08632 64.2301 3.64919C64.5316 3.42663 64.8639 3.24887 65.2167 3.1215C66.5841 2.73621 67.7988 1.94029 68.6952 0.842296C69.8791 1.30824 70.8769 0.544765 71.9819 0.52231C73.2279 0.52231 74.4625 0.112505 75.7028 0.078822C78.4709 0.00584266 81.2446 0.078822 84.0015 0.078822C85.129 0.94896 84.9881 0.960188 84.475 2.18399C83.8436 3.69411 82.733 4.66529 81.4871 5.59157C81.1544 5.83857 80.9233 6.19224 80.5738 6.4617C79.4462 7.39359 78.3581 8.30864 77.2532 9.23492C77.084 9.38088 76.9431 9.56052 76.7345 9.7963C79.0175 9.85047 81.2963 9.57439 83.4997 8.97668L84.9993 8.86441C85.3263 8.86441 85.6533 8.83634 85.9746 8.79143C86.7977 8.67915 87.6208 8.52197 88.4496 8.42092C89.532 8.28619 90.5863 7.74165 91.4376 8.06164C92.2385 7.89457 93.0477 7.76903 93.8618 7.68551C95.7882 7.65141 97.7013 7.36065 99.5502 6.82099L100.621 7.66867L102.454 7.42728L104.043 8.6174C103.959 9.36404 103.886 9.98717 103.784 10.8629C102.868 11.8516 101.739 12.6195 100.48 13.1084C99.5201 13.4762 98.6197 13.9832 97.8081 14.6129C96.5259 15.5465 95.1529 16.3496 93.7095 17.01C93.1277 17.2843 92.6609 17.7532 92.3903 18.3349C91.9334 19.0831 91.2779 19.6912 90.4961 20.092C88.9677 21.0162 87.4973 22.0323 86.093 23.1347C85.7661 23.3817 85.3996 23.5725 84.9655 23.8308C85.0501 24.5325 85.9183 24.4315 86.093 24.7178C86.9612 24.8749 87.7167 24.8357 88.2635 25.15C89.3403 25.7619 90.5637 25.8517 91.6743 26.3289C93.4277 27.0699 95.2543 27.6201 97.0189 28.333C98.09 28.7653 99.0992 29.3435 100.148 29.86L100.103 30.4214C99.5784 30.7638 99.1725 30.4775 98.7383 30.3147C97.3064 29.7533 95.8801 29.192 94.4255 28.7204C93.7676 28.4901 93.0843 28.3393 92.3903 28.2713C91.167 28.159 90.1353 27.4629 89.0077 27.0868C88.0211 26.7556 86.9894 26.7556 86.0367 26.3738C85.6646 26.2223 85.2699 26.1156 84.9091 25.964C84.227 25.6833 83.5786 25.2174 82.8796 25.1388C81.4025 24.976 80.2468 23.9374 78.7753 23.8139C77.9466 23.7466 77.1291 23.5782 76.0974 23.421L74.7388 22.6407H72.8727L71.7451 23.2806L70.8713 23.0112L69.5464 23.8196L69.2984 23.1627L67.9623 23.8869L67.0771 23.6175L65.4591 24.7009L64.8052 24.2743L62.5501 25.7226C61.6932 25.2342 61.0166 25.7563 60.3401 26.284C59.0604 25.7844 58.5135 26.8791 57.837 27.4068H54.0146L54.6235 26.5703L54.3416 25.2398L53.3945 25.8012L53.8342 26.5815L53.045 27.2608L52.8815 25.644C53.4452 25.1669 53.1183 24.3922 53.2028 23.6624L52.639 23.4097C52.3121 22.68 52.639 21.8042 52.1655 21.1249L52.4361 19.6317L52.2388 19.5643L52.9773 18.711V16.0164C53.4627 15.254 53.6623 14.3455 53.5411 13.4509L47.847 17.824C48.1627 18.6156 48.749 18.071 49.4087 17.9868L48.9746 19.0141L49.3466 19.5755L48.3488 20.6983L49.0309 20.9734C48.9689 21.8379 48.952 22.6575 49.6511 23.348L49.4481 24.0553L50.1754 23.9992C50.063 24.4216 50.062 24.8658 50.1726 25.2888C50.2833 25.7117 50.5017 26.099 50.8068 26.4131C50.3107 27.4741 51.41 28.1422 51.4946 29.119C51.5679 29.9667 52.25 30.7638 52.6842 31.6283L52.391 32.0381C52.6954 32.7848 53.0055 33.5483 53.3889 34.4801L53.7102 34.5868L53.9019 37.5453L52.3797 37.6463C51.0887 34.671 50.4291 31.4712 49.1775 28.4004C48.8167 28.5576 48.5292 28.6699 48.2529 28.8046C47.387 29.2636 46.461 29.5999 45.5017 29.8039C44.5463 30.0492 43.6052 30.3472 42.6829 30.6965C42.0684 30.8873 41.4257 31.0108 40.8112 31.2073C38.8267 31.8361 36.8648 32.5546 34.8578 33.1048C33.2905 33.537 31.7796 34.1153 30.2575 34.6598C30.0695 34.7574 29.8886 34.8681 29.7162 34.991L29.6768 35.7882L30.1842 35.8275V37.6407C29.3611 38.3256 28.4929 39.1621 27.495 39.8526C26.4971 40.543 25.1215 40.6329 23.9263 40.9753C22.2745 41.4469 20.5945 41.8174 18.9483 42.3002C17.8207 42.6258 16.7721 43.0749 15.5657 43.5015C15.8319 43.7685 16.1358 43.9954 16.4677 44.1752C17.7644 44.6523 18.8073 45.5842 20.0814 46.1119C20.5719 46.314 20.9102 46.9315 21.4063 47.0775C22.5733 47.4199 23.3682 48.2901 24.3548 48.8739C24.7438 49.1041 25.1779 49.25 25.5895 49.4353C25.7652 49.4866 25.9297 49.5704 26.0743 49.6823C26.8072 50.3988 27.67 50.9703 28.6169 51.3664C29.2088 51.6471 29.6317 52.1917 30.4153 52.2029C30.8269 52.2029 31.2271 52.7194 31.6443 52.9832C32.0615 53.2471 32.6366 53.5839 33.2849 53.9712C33.2849 53.9712 33.3356 54.1228 33.392 54.3137C34.5195 54.0611 34.9255 55.3859 35.9628 55.3747C35.9693 55.5384 35.9863 55.7015 36.0135 55.8631C36.7126 55.8631 37.0114 56.5929 37.7048 56.7108C38.5392 56.8511 39.2157 57.463 39.9148 57.8953C40.6139 58.3275 41.3975 58.9282 42.1981 59.3717C42.3841 59.4728 42.4348 59.8264 42.5589 60.0903C43.241 59.9106 43.7992 59.3605 44.5659 59.6692C44.7125 59.731 44.9718 59.4784 45.1917 59.4054C45.6847 59.297 46.1689 59.1526 46.6406 58.9731C48.1345 58.2321 49.9217 58.2321 51.3086 57.0532L51.7257 57.1992C53.417 56.7388 55.0012 56.329 56.5516 55.8912C57.0201 55.7293 57.4793 55.5419 57.9272 55.3298C57.3634 53.466 56.7997 51.7145 56.2923 49.9574C55.7961 48.3238 55.2887 46.6902 54.8265 45.0453C54.6983 44.5917 54.6869 44.1133 54.7934 43.6541C54.8998 43.195 55.1205 42.7699 55.4353 42.4181L55.7285 43.4398L56.14 43.3892L56.0386 44.3997L56.7038 45.7246L56.5009 46.6003L57.3014 46.5049L57.0308 47.2235C57.6904 48.3462 57.8821 49.7048 58.3387 50.9735C58.7954 52.2422 59.0209 53.4997 59.3986 54.9593L61.0899 54.1116L62.6459 54.3642L61.7044 55.3803V58.0076L61.2872 58.4679L61.7044 59.0573L61.524 60.1183L62.753 59.4391L62.2682 58.6588L62.6685 55.5431C63.61 54.7852 63.531 53.4941 63.5423 52.3039C63.8524 51.7426 64.1343 51.2822 64.3936 50.7882C64.9428 49.697 65.8442 48.8212 66.9531 48.3013C67.8792 47.8624 68.7608 47.336 69.5859 46.7295C70.0023 46.7217 70.415 46.6497 70.8093 46.5161C71.9989 45.905 73.2267 45.3706 74.4851 44.9162C75.9058 44.3548 77.2588 43.7092 78.7922 43.5127C79.1489 43.3961 79.4912 43.2398 79.8127 43.0468C80.9022 42.5428 82.034 42.1351 83.1953 41.8286C84.148 41.6434 85.0219 41.2111 85.9465 41.082C86.8951 40.9067 87.7925 40.5231 88.5736 39.9592C88.9894 40.0258 89.4151 39.9933 89.8159 39.8645C90.2167 39.7357 90.5812 39.5142 90.8794 39.2182L91.8998 39.3922L93.3093 38.567L93.873 38.7186C94.8202 38.4042 95.6376 38.2077 96.3931 37.8653C97.626 37.3231 98.8236 36.7043 99.9787 36.0127C100.415 35.6254 100.782 35.1658 101.061 34.6542C100.661 33.4023 100.176 32.2739 100.554 31.0277C100.745 31.0277 100.943 30.9322 101.005 30.994C101.794 31.7631 102.696 32.4873 102.696 33.7167C102.696 35.064 102.865 36.4113 102.487 37.753C102.38 38.1347 102.657 38.6119 102.809 39.2856L106.62 36.2541C107.133 36.7369 106.586 36.9895 106.58 37.3151C106.575 37.6407 106.58 38.0168 106.62 38.3649C104.895 40.0827 104.049 40.6104 102.465 40.8967C101.738 41.7388 100.852 42.3788 99.5896 42.1879C99.5198 42.174 99.4478 42.1744 99.3781 42.1888C99.3083 42.2033 99.2422 42.2316 99.1837 42.2721C98.0562 43.2826 96.4946 43.2321 95.2374 43.9169C94.7265 44.1236 94.203 44.298 93.6701 44.439C93.1063 44.6523 92.5764 44.9218 91.8209 45.2643H90.8907C90.2593 45.6684 89.6053 46.0951 88.8668 46.5779L88.303 46.1512C86.8203 47.274 84.9599 47.4199 83.2855 48.0655C83.1163 48.1273 82.9134 48.1161 82.7217 48.1834C81.4814 48.6999 80.2524 49.2557 79.0008 49.7441C77.9282 50.1769 76.8329 50.5517 75.7197 50.8668C74.95 51.0499 74.2311 51.4021 73.6156 51.8974C73.0001 52.3928 72.5036 53.0189 72.1623 53.7299C71.7027 54.472 71.1763 55.171 70.5894 55.8182C70.3695 56.8174 70.5495 57.8626 71.0912 58.7317C71.2393 59.0216 71.446 59.278 71.6982 59.4847C71.9504 59.6914 72.2428 59.8441 72.557 59.9331C72.8772 60.0158 73.173 60.1737 73.4195 60.3934C74.4625 61.2972 75.7874 61.606 76.9995 62.1505C77.5632 62.3975 78.0819 62.6782 78.6287 62.9196C78.9134 63.078 79.2249 63.1826 79.5477 63.2284C79.9562 63.25 80.3488 63.3927 80.6752 63.6382C81.4476 64.1996 82.4286 64.1996 83.3306 64.3343C83.9338 64.4185 84.5483 65.0304 85.1572 64.3343L85.5687 64.7666H88.117L89.3178 65.1146L89.2896 65.749L90.4453 65.1315L90.8963 65.53L93.1063 65.4234L93.8618 64.9294L93.9125 65.0809C94.6726 64.9081 95.4116 64.654 96.1168 64.3231C96.7934 63.9245 97.5488 64.0873 98.2141 63.7617C98.8793 63.4361 99.6178 63.2452 100.277 62.9084C101.76 62.1505 103.474 61.9597 104.872 60.9941C105.159 60.843 105.47 60.7423 105.791 60.6966C105.876 60.6966 105.988 60.6966 106.067 60.6966L110.837 58.7879C111.463 58.8777 112.291 58.4118 113.182 58.1704C115.099 57.6483 116.875 56.6939 118.882 56.4469C119.601 56.2618 120.297 55.9963 120.956 55.6554C120.61 56.3127 120.077 56.8536 119.423 57.2104C118.933 57.5472 118.369 58.0974 117.658 57.5472C117.145 57.8953 116.689 58.2153 116.226 58.5184C116.007 58.6935 115.759 58.8301 115.494 58.9226C113.605 59.2875 111.902 60.1576 110.138 60.8538C108.971 61.3085 107.708 61.505 106.704 62.3751H105.481L103.88 63.6214L102.679 63.4586L101.343 64.4522L100.131 64.3175C99.5163 64.7722 98.9526 65.182 98.5241 65.4907C96.7257 65.4907 95.7053 66.5518 94.7469 67.3489C94.0929 67.7531 93.5855 68.0394 93.1063 68.3706C92.7399 68.6289 92.5425 69.1285 91.9788 69.0836L91.8886 68.0282C90.9133 67.8373 90.7216 68.7973 90.0507 69.0387L89.1994 68.4436L84.4017 72.6876L82.919 73.2995L82.7612 73.1536L83.5223 72.1599L83.4039 72.0027L81.4983 73.2715L81.3517 73.1255C81.6111 72.7943 81.8648 72.4631 82.1185 72.1262L82.0226 72.0027L80.1791 72.9571L80.2468 72.188L79.1812 72.3957L79.9592 71.0147L78.6682 71.7164L78.3581 71.0203L76.96 71.4189L77.7662 70.2962C77.6422 70.2681 77.5407 70.2063 77.4787 70.2344C76.9995 70.4477 76.774 71.1551 75.9621 70.9474L77.0333 69.572L76.9093 69.4372L75.2574 70.4533L75.1334 70.2849C75.4716 69.9256 75.793 69.5551 76.1482 69.2183C76.5033 68.8815 76.9318 68.5559 77.3264 68.2247L77.1404 67.9777C76.9278 68.0651 76.724 68.1722 76.5315 68.2976C75.8517 68.8938 75.0929 69.3944 74.2765 69.7853C74.361 69.572 74.3836 69.3081 74.5302 69.1622C74.8902 68.8383 75.2665 68.5329 75.6577 68.2471L75.4998 68.0226L73.9607 69.0218L74.175 67.8991L73.1489 68.3313C73.1489 68.1798 73.0587 68.0113 73.1151 67.9271C73.2833 67.6537 73.4882 67.4044 73.724 67.1861C74.7218 66.2991 75.7366 65.4346 76.8698 64.4466C75.5224 64.0199 74.9925 64.9238 74.1693 65.603C72.7092 65.4458 72.0045 67.0177 70.6514 67.6914C70.8826 66.1812 72.5401 66.0858 72.9911 64.8115C71.5309 65.3729 70.736 66.664 69.4732 67.3433C69.4982 67.8753 69.3986 68.4058 69.1824 68.893C68.9662 69.3801 68.6392 69.8105 68.2272 70.1502L67.7255 68.9488C68.2545 66.8171 68.4259 64.613 68.2329 62.4256C67.1786 62.3695 67.1786 62.3695 67.1392 64.222C66.2006 65.6798 65.7871 67.4117 65.9665 69.1341L65.0701 69.5944C64.4105 69.3306 63.7735 69.1453 63.531 68.4717C63.6382 67.7531 64.1794 68.1517 64.5684 67.9945V66.3104L63.7566 66.7202L63.672 65.7378L62.3359 66.7763L62.1442 66.6416L62.5163 65.7097C61.7608 65.7097 61.3887 66.3216 60.949 66.5967L59.9117 65.6648L60.4416 64.8508C59.3141 65.182 52.2895 71.3459 51.0887 72.7101C51.5115 72.5697 51.7596 72.5024 51.9907 72.4069C52.2219 72.3115 52.4586 72.0645 52.5939 72.1262C53.4114 72.4687 53.8793 71.8399 54.4769 71.5649C54.9849 71.3497 55.5044 71.1623 56.0329 71.0035C56.305 70.9406 56.5682 70.8445 56.8166 70.7172C57.9159 69.9649 59.2295 69.8246 60.5205 69.4653L60.9659 69.8358L63.1702 68.4773V70.0267C62.5728 70.807 61.8006 71.4375 60.9152 71.868C60.7886 71.9255 60.6724 72.0032 60.5713 72.0982C59.5602 73.0039 58.5567 73.9114 57.5607 74.8209C57.0581 75.2457 56.7441 75.8509 56.6869 76.505C56.6343 76.8616 56.4928 77.1994 56.2753 77.4874C55.7259 78.3443 55.3842 79.3169 55.2775 80.328C55.1915 81.1489 54.9626 81.9487 54.601 82.6914C54.3861 83.2842 54.2551 83.9039 54.212 84.5327C53.9583 85.6555 53.7891 86.7783 53.5467 87.901C53.5016 88.1143 53.293 88.2884 53.2085 88.4119L53.6426 89.1866L51.9174 90.8988C50.959 91.0167 50.6884 91.9766 50.1754 92.2517L49.9668 96.3385L49.0986 96.7989C48.9746 96.6698 48.8618 96.608 48.8562 96.5406C48.6634 94.905 48.5824 93.2583 48.6137 91.6117C48.687 90.6012 48.7885 89.5851 48.8111 88.5634C48.8233 85.2804 48.6351 81.9996 48.2473 78.7393C48.2592 78.3708 48.3064 78.0042 48.3882 77.6446C48.4164 77.3415 48.4277 77.0271 48.4559 76.5555C48.0172 76.5796 47.5815 76.6416 47.1536 76.7408C46.6374 76.9363 46.1329 77.1612 45.6427 77.4144C44.098 78.1498 42.5589 78.9077 41.0029 79.6151C39.8753 80.1203 38.7478 80.5469 37.6203 81.0241C36.7239 81.4058 35.8162 81.7876 34.9424 82.2198C34.6166 82.4283 34.3158 82.6731 34.046 82.9496C34.6097 84.1847 33.8543 85.3074 33.8261 86.593C34.9536 86.2618 36.0023 85.9362 37.0565 85.6611C37.7725 85.4702 38.449 85.4815 38.7816 86.3067C38.2573 87.2049 37.1749 86.0709 36.6675 86.9467C36.6224 88.1649 37.8627 88.6308 38.5054 89.8322C38.1837 89.7402 37.8749 89.6082 37.5864 89.4392C36.0023 88.0189 35.1059 87.9347 33.2793 89.0855C32.9635 89.282 32.6591 89.4897 32.3321 89.703C31.8191 89.0575 32.5238 88.5354 32.3321 87.9852L31.7063 85.7397H31.9318C32.1066 85.0829 32.3208 84.4373 32.4449 83.7749C32.5689 83.1124 32.5689 82.5398 32.6309 81.8325L32.0671 81.4171L32.8621 80.7153L33.3582 78.874L34.5534 77.6109L34.435 77.4537L33.5893 77.9141C33.0256 77.4201 33.7359 77.145 33.5893 76.6566L32.879 76.8418C31.7398 76.3522 30.6752 75.706 29.7162 74.9219C29.0647 74.4305 28.3087 74.0944 27.5063 73.9395L27.8107 74.6468L27.4894 75.7303C27.9178 77.4144 27.5739 79.1996 27.681 80.9624C27.714 81.3671 27.639 81.7733 27.4638 82.14C27.2886 82.5067 27.0193 82.8208 26.6832 83.0507C26.5479 82.8823 26.3393 82.7363 26.3449 82.6016C26.4238 81.0466 26.0348 79.4859 26.514 77.9253C26.694 77.1112 26.7997 76.2826 26.8297 75.4496C26.87 74.7525 26.697 74.0596 26.3336 73.4623L25.7699 72.3789C24.834 71.6154 23.1765 71.7445 22.4662 70.3467C21.1357 70.4084 20.4535 69.3474 19.6022 68.6289L17.8658 68.0675C17.7531 68.6625 17.6403 69.2688 17.5219 69.8751C17.4745 70.0997 17.4124 70.321 17.3359 70.5376C17.0809 71.0313 16.8914 71.5559 16.7721 72.0982C16.5974 74.2258 15.0808 75.298 13.5586 76.3927C13.2598 76.6117 12.9949 76.8755 12.713 77.1169C11.7659 77.9477 10.8244 78.801 9.89415 79.6094C9.81523 79.6768 9.65737 79.6544 9.3924 79.6936C9.70811 78.5709 10.7793 78.2902 11.4163 77.6334C12.0534 76.9766 12.9554 76.6454 13.3839 75.5451C12.5382 75.6349 12.2563 76.2524 11.8448 76.6004C11.4332 76.9485 11.033 77.3583 10.6158 77.7232C10.1985 78.1517 9.73097 78.5286 9.22327 78.846C8.76098 79.093 8.59185 79.8228 7.70673 79.6431C9.35857 77.6727 11.5291 76.4545 13.2993 74.6244L13.1696 73.9563C12.0421 75.0174 11.0273 75.9885 9.97308 76.8924C8.95121 77.7947 7.85769 78.6133 6.70323 79.34C7.0133 78.2172 8.10701 77.8635 8.78917 77.0945C9.56298 76.2878 10.3938 75.5374 11.2754 74.8489C12.0928 74.1697 12.9667 73.5465 13.694 72.9908C14.1901 71.9522 13.4177 71.0989 13.7729 70.1165C14.0435 69.3643 13.6545 68.3931 13.6207 67.5173C13.5868 66.6416 13.6207 65.6535 13.6207 64.6431C11.2021 62.9589 8.88501 61.1681 6.29168 59.6187L5.72791 61.1681C4.79769 60.4047 5.37273 59.6412 5.48549 59.0068C5.04011 57.7437 3.58559 57.7381 2.93726 56.6939L3.34317 55.0547C4.155 54.7909 4.37486 55.6666 5.07394 55.8126L5.72227 55.3971C5.68281 55.2175 5.69408 55.094 5.63771 55.0491C5.38237 54.7915 5.08499 54.5789 4.75823 54.4203C4.04777 54.1983 3.43248 53.7457 3.01055 53.1348C2.90763 52.8627 2.91475 52.5614 3.03042 52.2944C3.14609 52.0274 3.36128 51.8155 3.63069 51.7033C4.75823 52.5004 6.04926 53.0281 7.0133 54.0386C7.50338 54.4386 8.0366 54.7832 8.60312 55.0659C10.3452 56.1887 12.0872 57.3114 13.7391 58.5409C14.4269 59.0686 15.2725 59.3942 15.949 59.9275C17.2119 60.9155 18.6382 61.6565 19.9574 62.5491C21.1808 63.3856 22.376 64.3006 23.6557 65.008C25.2963 65.9062 26.6888 67.1356 28.3068 68.045C30.2236 69.1229 31.96 70.487 33.6626 71.6603L38.4885 70.459L39.2721 69.9762L40.3602 70.1502L40.1741 69.1004L41.0987 68.4829L42.5307 69.8078L43.5342 68.7467L43.4102 68.5278L42.3108 68.8871C42.652 68.2891 43.1194 67.772 43.6808 67.3714C43.9288 67.158 44.2107 66.9896 44.4531 66.7763C45.4679 65.8781 46.4827 64.9799 47.4693 64.0536C47.8696 63.6775 48.2078 63.2284 48.5968 62.8074C48.7716 62.7737 48.9971 62.8074 49.1211 62.6895C49.9724 61.9653 50.8124 61.2187 51.6525 60.4889C52.4925 59.7591 53.2874 59.1022 54.1217 58.4286C54.1781 58.3837 54.3529 58.4735 54.6855 58.5521C54.0259 59.1921 53.496 59.7647 52.9153 60.2755C51.8667 61.1962 50.7843 62.0719 49.7244 62.9814C49.5512 63.1552 49.3928 63.343 49.2508 63.5428C51.613 62.1449 53.4058 60.0622 55.7736 58.7093C55.735 58.9265 55.6238 59.1244 55.4579 59.2707C54.725 59.9163 53.9808 60.5506 53.2423 61.1962C51.8723 62.3807 50.4967 63.5708 49.1437 64.7778C49.0309 64.8732 49.0422 65.1202 48.9238 65.5974C50.119 64.5813 51.1 63.8122 52.0133 62.9702C53.8173 61.286 54.398 60.8594 55.176 60.7976L54.2909 61.5667C52.8138 62.8466 51.3142 64.1041 49.8709 65.4178C49.5101 65.7434 48.9576 66.0241 48.9351 66.8268C49.7131 66.1813 50.3614 65.6535 50.9985 65.1146C51.6355 64.5757 52.3628 63.9919 53.0111 63.38C53.9921 62.4593 54.2401 62.2909 54.973 62.2067C54.2232 62.9702 53.4509 63.7224 52.718 64.5139C51.9851 65.3055 50.8575 65.6086 50.243 66.7595C50.5644 66.7089 50.7222 66.7314 50.8068 66.664C51.5228 66.069 52.2275 65.4627 52.9322 64.8564C54.7926 63.2565 56.6418 61.6453 58.5191 60.0622C58.8572 59.8345 59.2204 59.6461 59.6016 59.5008C58.7277 60.3261 57.8765 61.185 56.9744 61.9765C54.5728 64.1098 52.158 66.2299 49.73 68.3369C48.6025 69.3081 47.4749 70.2344 46.3474 71.1944C46.2425 71.3237 46.1606 71.4699 46.105 71.6266C46.4742 71.6066 46.8267 71.4666 47.1085 71.2281C48.1007 70.3804 49.0591 69.4934 50.0514 68.6401C50.3103 68.4652 50.5883 68.3202 50.8801 68.2078C50.7818 68.5041 50.633 68.7813 50.4403 69.0274C49.4368 69.9256 48.3882 70.7733 47.3735 71.6491C47.2132 71.8197 47.0733 72.008 46.9563 72.2105C47.072 72.2516 47.1962 72.2629 47.3175 72.2432C47.4388 72.2236 47.553 72.1737 47.6497 72.0982C47.9654 71.8287 48.2135 71.5031 48.5574 71.2281C50.3276 69.7292 52.1035 68.2415 53.885 66.737C54.9505 65.8444 56.0329 64.9743 57.0872 64.0705C57.5382 63.6831 58.085 63.3126 57.9159 62.5716C58.1922 62.2853 58.615 62.0102 58.7165 61.7014C58.9405 61.0951 59.3825 60.593 59.9568 60.2924C60.1868 60.0816 60.3929 59.8463 60.5713 59.5907L59.6072 59.4896C59.7933 59.1752 60.0019 58.8721 60.171 58.5409C60.2161 58.4567 60.1146 58.3051 60.0751 58.176L59.3028 58.6363L58.2993 57.0308L57.1717 56.6995L55.0633 58.0693L53.8399 58.1255C53.0731 58.7767 52.3459 59.4391 51.5848 60.0285C51.0631 60.3714 50.5166 60.6754 49.9499 60.938ZM96.8836 39.7347L95.2261 39.5943L94.4988 40.4027L93.8843 39.8413C93.4446 40.1613 93.0105 40.4869 92.5595 40.8069C92.1084 41.1269 91.9055 41.7949 90.9696 41.7163L92.0972 40.5206C91.0429 40.4757 90.6201 41.1999 90.0281 41.5535L89.4644 41.0932L87.6716 42.1261C87.3814 42.0678 87.0823 42.0678 86.7921 42.1261C86.1513 42.4972 85.4865 42.8253 84.802 43.1086C84.0409 43.305 83.2404 43.3219 82.6315 43.9226C82.5751 43.9787 82.4624 43.9843 82.3778 44.0124L81.5491 43.7541L80.072 44.6299C78.9445 44.4502 78.065 44.9948 77.2532 45.719C75.9621 44.9667 75.3589 46.6059 74.2934 46.4431L74.1186 47.0045L72.946 46.9428V47.0663L73.5605 47.3301C73.4364 48.1834 73.3068 49.0143 73.1997 49.7553L74.5978 49.8339L76.4131 48.7729C76.6556 48.6325 76.9262 48.3911 77.163 48.4136C78.3356 48.5315 79.0121 47.8073 79.6774 47.0382C79.7337 46.9765 79.8352 46.9596 79.9536 46.9035L80.9571 47.1954L81.8535 46.5891C83.06 46.9484 83.9056 45.7807 85.0106 45.7695C86.2171 45.7695 86.8992 44.7478 87.8689 44.5345L88.3481 43.6868L88.7878 44.4671L91.556 42.783L92.069 42.9401L93.3769 42.143C95.3524 42.0052 97.275 41.4461 99.0146 40.5037L99.7701 40.6666C100.423 39.5624 100.657 38.2619 100.43 37.0007L96.8836 39.7347ZM36.3856 30.7975L36.5717 31.0782C37.1167 30.7686 37.698 30.5273 38.3024 30.3596C39.8993 30.0892 41.4524 29.6058 42.9197 28.9225C43.1684 28.8321 43.4282 28.7755 43.692 28.7541C43.9965 28.7036 44.3066 28.6979 44.5997 28.6306C44.8929 28.5632 45.2199 28.3443 45.5243 28.3611C46.2811 28.3802 47.0154 28.1042 47.5708 27.592L48.6983 27.738C48.818 27.1707 48.7508 26.5801 48.5066 26.0538C47.9767 24.5718 47.3791 23.101 47.4975 21.4674C46.2628 22.1972 45.2424 23.3536 45.0564 24.1564L43.9852 25.2174L43.5567 25.122L42.6885 25.7619V26.5142H41.9049L41.9951 27.1317H41.4313C39.943 28.6867 37.9078 29.4165 36.3856 30.7975ZM17.7813 64.0985C17.956 64.3175 18.0801 64.6038 18.2943 64.7329C20.1096 65.8163 21.9475 66.8549 23.7572 67.9496C24.0729 68.1405 24.259 68.5446 24.4957 68.8366C25.55 69.1229 26.187 70.0772 27.0609 70.5488H27.9516L27.8276 71.2449L28.3012 71.1944L31.6838 73.642C32.1235 73.1816 31.9037 72.5866 31.9037 71.9971C30.2124 70.8744 28.521 69.7516 26.8636 68.6625C24.6085 67.2086 22.3083 65.777 20.0307 64.3455C19.5571 64.048 19.0667 63.7842 18.5987 63.4754C16.7383 62.246 14.8835 61.0053 13.0231 59.7815C11.2604 58.6363 9.49576 57.4986 7.72928 56.3683C7.31773 56.0989 6.91182 55.734 6.26349 55.9866C6.43826 56.8511 7.13169 57.1094 7.71801 57.5528C8.30433 57.9963 8.96957 58.1704 9.47696 58.7486C10.0631 59.2669 10.7174 59.7032 11.422 60.0454C11.9857 60.3934 12.5157 60.7359 13.0513 61.0951C13.4966 61.3927 13.9307 61.7127 14.3817 62.027L14.3028 62.5884L15.1259 62.3639C15.8419 62.9814 16.5466 63.5764 17.3077 64.2276L17.7813 64.0985ZM50.5418 76.1626V80.0922L51.1676 80.1596L50.508 81.1757L51.0718 81.5125C51.0718 82.1076 50.2261 82.3377 50.7335 82.9721L53.434 80.6199L53.1408 79.6207L53.7497 78.7337L52.3741 79.2951C52.4044 79.0646 52.4865 78.844 52.6144 78.6496C52.7423 78.4552 52.9126 78.292 53.1126 78.1723C53.9244 77.8804 54.2401 77.1394 54.8039 76.6341C54.9167 76.5331 54.8885 76.2861 54.9505 75.9773L53.2592 77.2067C53.7891 75.7696 55.1365 75.59 55.689 74.6525C56.2415 73.715 57.324 73.2883 58.102 72.3283C57.2939 72.4522 56.546 72.8276 55.9653 73.4006C55.627 73.3501 55.2267 73.1536 55.0125 73.2771C53.5242 74.1865 51.5679 74.2033 50.5249 76.1626H50.5418ZM48.2868 73.6251C48.8505 73.9564 49.1888 73.5465 49.4538 73.3276C50.8914 72.1038 52.2726 70.8182 53.6989 69.5776C54.8941 68.5447 56.1231 67.551 57.324 66.5349C58.3782 65.6423 59.4212 64.7329 60.3345 63.9526V61.8306L59.9455 61.7969C59.4324 62.4144 59.0096 63.0151 58.4966 63.5203C57.7975 64.1996 57.0421 64.8227 56.2866 65.4458C55.3564 66.2205 54.3811 66.9391 53.4678 67.725C52.7574 68.3369 52.1147 69.0218 51.4382 69.6786C53.1803 69.0218 54.3585 67.6464 55.7229 66.5349C57.0093 65.3752 58.3813 64.3131 59.8271 63.3575C59.5298 63.8746 59.1488 64.3393 58.6996 64.7329C57.5382 65.7378 56.3599 66.7202 55.1816 67.7082C53.4396 69.1678 51.6863 70.6217 49.9499 72.0926C49.341 72.5641 48.828 73.0862 48.2473 73.6251H48.2868ZM81.6956 23.0392C83.6012 23.7915 83.6576 23.769 84.9711 22.5789C85.4109 22.1067 85.9396 21.7252 86.5271 21.4561C87.8464 21.0183 88.8442 20.1145 89.9718 19.4015C90.1482 19.2475 90.3087 19.0764 90.451 18.8906C89.8778 18.8914 89.3276 19.115 88.9175 19.5138C88.3283 20.0389 87.6042 20.3907 86.8259 20.5299C86.4654 20.6149 86.1195 20.753 85.7999 20.9397C84.7174 21.4674 83.6463 22.0063 82.5751 22.5508C82.2932 22.6407 82.0677 22.7978 81.6562 23.0392H81.6956Z" fill="#D3B68A"/>
<path d="M137.34 56.4185C137.34 56.5083 137.34 56.6431 137.306 56.688C136.207 57.6872 135.113 58.6865 133.991 59.6577C132.723 60.7524 131.426 61.8134 130.135 62.88C129.902 63.0128 129.654 63.1183 129.396 63.1944C129.678 62.414 130.524 62.3579 130.496 61.4822L128.167 63.0596L127.874 62.2737L125.777 63.7221L125.27 63.1607L123.544 64.334L123.375 64.188L124.074 63.0652L123.911 62.9137L121.047 65.0694L121.611 63.7445C121.33 63.8179 121.059 63.9254 120.804 64.0645C120.021 64.7101 119.26 65.3837 118.335 66.1753V65.0525L116.029 66.7086L115.883 66.6188L116.537 65.3051C115.635 65.6476 115.268 66.2651 114.744 66.6693C114.22 67.0735 113.645 67.4945 113.086 67.9099C112.619 67.4215 113.239 67.2531 113.289 66.8882C113.165 66.8882 113.002 66.8377 112.929 66.8882C111.801 67.7528 110.752 68.6397 109.659 69.5099C109.563 69.5762 109.45 69.6145 109.334 69.6204C109.217 69.6264 109.101 69.5998 108.999 69.5436L111.311 67.4272C110.031 67.4945 109.71 68.5499 108.915 68.926C108.12 69.3022 107.539 69.9141 106.71 70.2677L108.035 68.8362C107.054 68.752 106.688 69.5829 106.022 69.8916C105.498 69.1057 106.586 69.1843 106.558 68.5612C106.333 68.5919 106.116 68.6623 105.915 68.7689C104.895 69.6502 103.903 70.5709 102.882 71.4579C102.592 71.6556 102.282 71.823 101.958 71.9575V70.9358L99.7308 72.6031C99.7026 72.1484 99.6857 71.9182 99.6632 71.5758L97.8478 72.6985L97.3968 72.1933L95.8803 72.8332L96.4441 71.8003C95.6291 72.2245 94.8585 72.7285 94.1439 73.3048L93.9635 73.069L95.2601 71.4579C94.0029 72.0642 93.0389 73.0297 91.8775 73.8774C92.0278 73.357 92.3421 72.8985 92.7739 72.5694C93.1611 72.2266 93.5177 71.851 93.8394 71.4466C92.633 71.4747 92.1481 72.8669 90.874 73.041C91.6912 71.6352 92.7864 70.4091 94.0931 69.4369C94.1833 69.145 94.189 68.6903 94.4201 68.4657C95.2883 67.6236 96.2186 66.8489 97.1431 66.0742C97.2615 65.9732 97.4814 66.0013 97.9099 65.9171L96.7485 67.3205C97.5603 67.2644 97.876 66.6019 98.4398 66.3437C99.0891 65.957 99.704 65.5157 100.278 65.0245L99.7139 66.1472L99.8436 66.2595L102.2 64.6259L102.837 65.0301L105.244 63.4358C104.974 64.362 104.117 64.7887 103.638 65.5353C104.247 65.3781 104.202 65.3613 105.431 64.2329C105.966 63.7277 106.558 63.3066 107.189 62.8295L108.142 63.1382L110.758 61.5046L110.995 61.8751L112.962 61.0274L113.278 61.4036C114.051 61.4429 114.434 60.7467 115.065 60.365L115.578 60.7804L117.388 59.7531L118.301 60.0562L119.457 59.231C119.818 58.9313 120.248 58.725 120.709 58.6303L119.987 59.3321L120.252 59.7924C121.098 59.1075 121.746 58.1588 123.003 58.0353L122.135 59.2479C123.054 58.9952 123.387 58.2711 123.95 57.8725C124.562 57.4103 125.246 57.0518 125.974 56.8115L125.219 57.9006C126.476 57.4122 127.158 56.4747 128.212 55.9919L128.517 56.6487C129.644 56.368 130.27 55.2789 131.217 54.7231L131.392 54.9533L129.137 57.2269L129.323 57.429L132.672 54.7231L133.117 55.5428L134.115 55.0544L134.239 55.2172L133.236 56.5532L133.337 56.6992L134.341 56.1378C134.786 56.9013 133.737 56.8452 133.777 57.5581L136.297 55.874L136.46 56.0368L134.369 58.2374L134.527 58.4114C135.237 57.85 135.936 57.2887 136.658 56.7722C136.891 56.6348 137.138 56.5237 137.396 56.441L137.34 56.4185Z" fill="#D3B68A"/>
<path d="M16.9976 82.8204L16.0505 83.9881C17.6347 83.3593 18.4408 82.1019 19.6699 81.3271L20.2336 81.8324L20.8932 81.4394C20.9947 81.49 21.2202 81.5517 21.2202 81.6078C21.2202 83.1572 22.4154 84.6786 21.3273 86.2112C21.6374 87.7269 21.2822 90.5282 20.6001 91.7014H19.4725L19.9574 89.7254C18.5649 89.7254 17.6234 90.5618 16.5297 90.9773C15.4436 91.4052 14.3871 91.9041 13.3669 92.4705C12.3183 93.0319 10.9878 93.0993 10.1591 94.2669C10.9145 95.036 10.9878 95.8613 10.0858 96.7426C9.88587 96.8538 9.6526 96.8899 9.42819 96.8446C9.20379 96.7993 9.00309 96.6755 8.86242 96.4956C8.8286 95.7041 8.43396 94.8115 9.36418 94.0143L9.10484 91.6341L9.98432 90.8425L10.8187 91.4993C11.5009 91.4993 11.5685 90.938 11.8955 90.4159L10.4748 90.7134L11.2641 89.658C11.1006 89.658 10.9484 89.6075 10.8638 89.658C10.3959 89.9556 9.94486 90.2755 9.47693 90.5955L8.64819 89.6412L9.09357 88.9395L8.85679 88.0188C9.53895 87.3171 10.1027 86.4638 11.3768 86.896L11.1119 86.1999C11.7847 85.177 12.7456 84.3744 13.8743 83.8927C13.5704 84.3837 13.1898 84.8234 12.7468 85.1951C12.3836 85.5537 12.0516 85.9424 11.7546 86.3571C13.6996 85.4589 14.9117 83.5502 16.7834 82.5622L16.9976 82.8204Z" fill="#D3B68A"/>
<path d="M79.4292 78.3405L74.5188 75.5336C74.3453 75.4655 74.1879 75.3623 74.0565 75.2305C73.3716 74.408 72.5001 73.7595 71.5139 73.3386L72.6415 72.4292L74.1467 73.8102C75.0348 74.1119 75.8888 74.5052 76.6949 74.9835C77.6308 75.6403 78.7245 75.8536 79.6829 76.4094C80.2467 76.7462 80.8725 77.0325 81.5603 77.3862L81.16 78.0991L81.549 79.4184L81.8985 79.5026C81.8798 79.8388 81.9006 80.176 81.9605 80.5074C82.0889 80.81 82.2495 81.098 82.4397 81.3664L84.8414 79.4689C85.4559 79.5138 86.0422 79.2836 86.5327 79.7889L85.0387 82.1467L86.4087 82.3993L85.9351 83.5221L86.3918 84.0834C85.3995 85.369 83.7139 85.9023 83.0768 87.491L86.0197 85.1613C85.8844 86.284 85.1346 86.531 84.599 86.9633C84.0634 87.3956 83.5109 87.985 82.8118 88.6474C83.9055 88.7092 84.1761 87.4573 85.2191 87.6763L82.9922 89.8488L83.5898 90.5618L82.964 91.2522L83.37 91.8698C82.592 93.4136 82.8908 95.0921 82.575 96.866L81.3348 98.0169C81.1882 97.652 80.9739 97.3825 80.9909 97.1243C81.0641 95.9678 81.1544 94.8114 81.3291 93.6662C81.6505 91.786 81.6505 89.8652 81.3291 87.985C81.309 87.8942 81.294 87.8024 81.284 87.7099C81.1825 86.2279 81.0078 84.7459 81.0078 83.2638C81.0369 82.0517 80.7453 80.8533 80.1621 79.7889C79.8915 79.2893 79.6491 78.7784 79.4292 78.3405Z" fill="#D3B68A"/>
<path d="M124.458 67.7419L122.766 69.0499H121.408C120.624 70.6386 118.842 71.1438 117.636 72.3115L118.685 74.0574C118.527 75.1072 117.557 75.3654 116.802 75.9885L116.492 77.6727L114.862 76.9541C114.614 75.1465 114.958 73.322 114.671 71.4863C113.177 71.5817 111.824 71.7052 110.679 72.6427C110.352 72.8168 110 72.9399 109.636 73.0076C108.249 73.5072 106.868 74.0293 105.475 74.5121C105.002 74.6805 104.483 74.7142 104.004 74.8714C103.164 75.1521 102.352 75.5058 101.512 75.7808C100.385 76.157 99.2571 76.4994 98.0845 76.825C97.696 76.9041 97.3022 76.9547 96.9062 76.9766L96.7314 75.9212C97.3403 75.6966 97.8872 75.4552 98.4622 75.2924C99.3473 75.0342 100.261 74.877 101.134 74.5851C101.698 74.3942 102.211 74.0237 102.769 73.8553C103.241 73.7836 103.705 73.6709 104.156 73.5185C104.668 73.2054 105.248 73.0223 105.848 72.9852C106.082 72.9783 106.308 72.8955 106.49 72.7494C107.573 71.9466 108.982 72.0308 110.132 71.4021C110.399 71.3224 110.678 71.292 110.955 71.3122C111.237 71.3122 111.57 71.3572 111.784 71.228C113.233 70.3747 114.913 70.1053 116.441 69.4878C116.576 69.4486 116.703 69.388 116.819 69.3081C118.228 68.1124 119.919 67.9159 121.611 67.6352C122.108 67.5167 122.596 67.3628 123.071 67.1749C123.199 67.1182 123.337 67.088 123.477 67.086C123.617 67.0841 123.756 67.1104 123.886 67.1633C124.015 67.2163 124.133 67.2949 124.231 67.3943C124.329 67.4938 124.406 67.612 124.458 67.7419Z" fill="#D3B68A"/>
<path d="M170.591 43.8327C170.773 43.8411 170.953 43.8732 171.126 43.9281C171.228 43.973 171.284 44.1246 171.403 44.2818L168.713 46.0445C168.634 46.9932 168.567 47.7735 168.482 48.8009L169.164 49.9741L168.601 50.5355C168.657 50.8443 168.719 51.2036 168.826 51.7986L168.37 52.0063C168.37 52.4723 168.324 52.8877 168.302 53.3761L167.586 54.3024L168.059 54.9423C167.885 55.223 167.699 55.5037 167.496 55.8799C167.631 57.4966 167.287 59.1808 167.806 60.9323L166.752 62.055L165.472 60.5674C165.562 60.006 165.669 59.3716 165.748 58.7373C165.832 58.4209 165.832 58.0881 165.748 57.7717C165.553 57.3289 165.48 56.8426 165.535 56.3623C165.591 55.882 165.773 55.425 166.064 55.0378C165.759 52.6014 165.556 50.2155 166.064 47.7904C165.173 47.4648 164.807 48.4753 164.153 48.3518L163.251 49.5587L160.821 49.9068C160.77 49.5138 160.725 49.1265 160.668 48.6717C162.608 47.0606 164.203 45.1238 166.278 43.7148C166.478 43.61 166.693 43.5344 166.915 43.4902L167.84 44.5344L169.666 43.4116C169.82 43.6157 169.993 43.8037 170.185 43.973C170.23 44.0179 170.444 43.8832 170.591 43.8327Z" fill="#D3B68A"/>
<path d="M170.591 43.8324C170.444 43.8829 170.23 44.0176 170.157 43.9671C169.965 43.7979 169.791 43.6098 169.638 43.4057L167.839 44.5341L166.971 43.5405C167.016 43.2822 167.056 43.0296 167.118 42.6422L165.906 43.2036L164.998 42.9398L162.794 44.6239L161.813 44.4499L160.843 44.8541C160.843 44.652 160.736 44.4218 160.809 44.2927C161.105 43.8772 161.452 43.5 161.841 43.1699C162.968 42.3279 164.096 41.5419 165.297 40.6718L165.787 41.2332L166.453 40.8515H168.477L168.77 41.7946C169.035 41.4128 169.153 41.2332 169.266 41.0704C169.142 40.8627 169.102 40.7111 169.006 40.6381C168.172 39.9813 167.14 39.8466 166.188 39.5603C165.242 39.3349 164.321 39.019 163.436 38.6172C162.127 37.9633 160.69 37.6012 159.225 37.5562L158.368 36.6748L159.405 35.6587C161.379 36.4334 163.188 37.1407 164.992 37.8593C165.291 37.9772 165.556 38.1849 165.844 38.2972C166.265 38.4826 166.705 38.62 167.157 38.707C168.358 38.8602 169.518 39.2413 170.574 39.8297C171.083 40.1805 171.562 40.573 172.006 41.003L170.878 41.9854L171.442 42.6703L170.591 43.8324Z" fill="#D3B68A"/>
<path d="M155.949 37.9659C155.641 38.5226 155.216 39.0061 154.702 39.3831C154.188 39.7601 153.598 40.0216 152.973 40.1497C152.749 40.1507 152.528 40.1976 152.323 40.2875C152.119 40.3773 151.935 40.5081 151.783 40.6718L154.038 41.7328L154.794 41.6205C154.647 42.3559 154.23 42.5468 153.734 42.3671C152.911 42.0471 152.043 41.9461 151.214 41.6373C150.086 41.2275 149.122 40.4753 147.859 40.3742C147.115 40.3181 146.405 39.8465 145.683 39.5434C143.921 38.7029 142.116 37.9534 140.277 37.2979C138.196 36.6691 136.285 35.6137 134.233 35.0074C132.181 34.4012 130.473 33.4356 128.562 32.7282C127.096 32.1669 125.602 31.6841 124.17 31.0441C123.696 30.8308 123.042 30.6904 123.375 29.7585C123.771 29.7402 124.167 29.7761 124.553 29.8652C126.245 30.4883 127.936 31.1283 129.627 31.8244C131.465 32.5991 133.28 33.4356 135.101 34.2552C136.229 34.7604 137.356 35.2825 138.523 35.7934C138.652 35.8488 138.786 35.8902 138.924 35.9169C141.038 36.3435 142.915 37.3652 144.866 38.2185C146.389 38.8913 147.973 39.4195 149.596 39.796C150.233 39.942 151.028 39.5153 151.721 39.2739C152.905 38.8641 154.061 38.3869 155.239 37.9659C155.475 37.9302 155.714 37.9302 155.949 37.9659Z" fill="#D3B68A"/>
<path d="M134.487 63.4079L135.614 63.1665L135.332 64.3566L135.845 64.817C135.969 64.744 136.105 64.7103 136.11 64.6598C136.201 64.0479 136.319 63.464 137.108 63.1721L137.993 63.9973L137.463 64.9405C137.858 68.1347 137.029 71.2672 137.317 74.5737L134.831 76.3308L133.703 75.8032L134.267 74.9386C134.267 74.1022 134.222 73.2152 134.267 72.3338C134.374 70.7676 134.56 69.2069 134.678 67.6407C134.702 67.0792 134.692 66.5169 134.65 65.9566C134.611 65.1482 134.577 64.3679 134.487 63.4079Z" fill="#D3B68A"/>
<path d="M137.351 56.4298L138.749 54.7905C138.71 54.5323 138.67 54.2292 138.614 53.8643C138.92 53.6634 139.245 53.4923 139.583 53.3534C141.839 52.691 143.829 51.4559 145.886 50.3781C147.076 49.755 148.367 49.3171 149.607 48.7838C150.977 48.2224 152.336 47.6049 153.711 47.0267C154.519 46.6603 155.401 46.4872 156.288 46.5214L158.103 45.3257C158.143 46.5551 157.1 46.6 156.649 47.1333C156.124 47.7508 155.329 47.7621 154.546 47.6947C153.582 48.4245 152.635 49.1711 151.654 49.8729C151.236 50.2435 150.738 50.5143 150.199 50.6644C149.213 50.7991 148.508 51.3886 147.713 51.8601C147.595 51.9275 147.487 52.0959 147.375 52.0959C145.847 52.0959 144.804 53.3085 143.389 53.6341C142.592 53.9111 141.834 54.2884 141.134 54.7569C140.57 55.06 140.113 55.5877 139.307 55.5035C138.924 55.4586 138.495 55.9021 138.078 56.1098C137.836 56.2277 137.576 56.3175 137.328 56.4185L137.351 56.4298Z" fill="#D3B68A"/>
<path d="M157.128 58.5239L157.348 59.0853C156.22 59.787 155.234 60.5786 153.965 60.9659C153.095 61.3053 152.283 61.7768 151.558 62.3638C150.888 62.8674 150.248 63.4091 149.641 63.9861C149.447 64.1285 149.299 64.3234 149.213 64.5475C148.852 65.9734 147.865 67.1972 147.82 68.6961C147.82 69.4203 147.426 70.1276 147.707 70.8574C147.144 71.4188 147.24 72.1374 147.144 72.8166C147.025 73.7317 146.918 74.6524 146.794 75.7077L145.667 76.9259C145.74 75.0116 145.802 73.4342 145.864 71.7837L145.334 71.329C145.334 71.2841 145.334 71.1662 145.413 71.1269C145.69 70.9751 145.913 70.741 146.05 70.4573C146.188 70.1736 146.233 69.8543 146.18 69.5438C146.151 68.8533 146.71 68.1347 147.008 67.4274C147.065 67.3039 147.144 67.186 147.076 67.3095C147.431 64.6935 148.288 62.6164 150.391 61.3477C152.048 60.3997 153.757 59.545 155.51 58.7878C156.035 58.6289 156.579 58.5402 157.128 58.5239Z" fill="#D3B68A"/>
<path d="M119.31 28.4786L117.331 29.0399C117.064 29.1101 116.793 29.1663 116.519 29.2084C116.287 29.2059 116.055 29.2266 115.826 29.2701C114.614 29.708 113.407 30.1683 112.201 30.623C111.987 30.7016 111.761 30.8813 111.558 30.8532C110.842 30.7746 110.318 31.1788 109.72 31.4146C108.847 31.7907 107.961 32.2173 106.902 31.8075C107.319 30.87 108.181 30.5388 108.875 30.028C109.134 29.8371 109.501 29.781 109.726 29.562C110.718 28.6133 112.083 28.5572 113.261 28.08C114.435 27.6674 115.63 27.317 116.841 27.0302C117.686 26.7944 118.532 26.5923 119.378 26.3565C119.942 26.1937 120.505 25.9692 121.069 25.7952C121.953 25.4999 122.909 25.4999 123.792 25.7952L123.195 26.5923L122.557 26.1769L119.468 28.501L119.31 28.4786Z" fill="#D3B68A"/>
<path d="M129.137 72.5079L131.956 74.0068C131.876 73.2105 131.75 72.4195 131.578 71.6377C131.144 70.0883 130.597 68.567 130.146 67.0232C129.96 66.372 129.785 65.659 130.524 65.1201C130.878 65.2508 131.179 65.4959 131.377 65.8164C131.575 66.137 131.66 66.5144 131.617 66.8885C131.603 67.9752 131.763 69.0572 132.091 70.0939C132.525 71.6883 132.976 73.277 133.348 74.8825C133.449 75.4755 133.364 76.0849 133.106 76.6284C132.954 76.4263 132.784 76.2354 132.649 76.0221C132.226 75.3653 131.713 74.8657 130.845 74.9386C130.706 74.9431 130.567 74.9162 130.439 74.8601C129.633 74.5288 128.838 74.192 127.913 73.8047C127.787 73.5777 127.716 73.3249 127.704 73.0659C127.692 72.8069 127.741 72.5487 127.846 72.3114C128.066 71.6517 128.066 70.9389 127.846 70.2792C127.762 69.6707 127.752 69.0543 127.818 68.4435L128.505 67.826L129.402 68.567C129.317 69.8975 129.233 71.1606 129.137 72.5079Z" fill="#D3B68A"/>
<path d="M12.5269 73.1646C11.0611 74.8487 9.31909 76.0557 7.74054 77.431C7.28388 77.8296 6.8667 78.4752 5.82936 78.638L7.94349 76.3195L7.80819 76.1286L6.78213 76.617L6.38749 76.1848C4.61473 77.0995 2.74447 77.8131 0.811825 78.3124C0.539117 78.3262 0.265816 78.3016 0 78.2394C0.137185 77.9687 0.30762 77.716 0.50739 77.4872C1.39175 76.669 2.4251 76.0269 3.55174 75.5953C4.52854 75.1964 5.48106 74.7409 6.40441 74.2312L6.90052 74.3771C7.65597 74.0571 8.23101 73.7652 8.83424 73.5687C9.43748 73.3723 10.0858 73.2768 10.5932 73.1646H12.5269Z" fill="#D3B68A"/>
<path d="M142.137 64.222L143.265 63.436C143.197 63.8739 143.152 64.1714 143.073 64.6655C143.135 64.8507 143.265 65.2268 143.394 65.603L144.054 65.7938L143.242 66.7931L143.654 67.3545C143.614 68.0562 143.575 68.7411 143.541 69.3754L144.358 69.6449L143.034 71.1326L143.315 71.5255C143.203 73.2489 143.034 74.8601 143 76.4769C142.966 78.0936 143.073 79.6992 143.124 81.4002C142.661 81.591 142.757 82.3994 142.075 82.5229C141.511 81.9616 142.509 81.316 141.867 80.8388C142.075 79.4634 141.765 78.0937 141.838 76.7183C141.912 75.3429 141.771 73.9114 141.867 72.5079C142.075 69.7459 142.182 67.0289 142.137 64.222Z" fill="#D3B68A"/>
<path d="M12.4705 80.8836L13.1301 81.1306L16.2365 79.2949L16.338 79.8114L17.6008 79.1938L18.2491 79.6093L19.1061 79.3454L19.8333 80.0584C19.6304 80.732 19.3034 80.8331 18.8975 80.8555C16.9972 80.9858 15.1421 81.4915 13.4402 82.3432C11.8042 83.0277 10.2452 83.882 8.7891 84.8918C8.62867 85.0856 8.40763 85.2202 8.16133 85.2741C7.91503 85.3281 7.65768 85.2982 7.43042 85.1894C7.81378 84.2182 8.09567 83.3873 9.35851 82.9944C10.4579 82.6463 11.3542 81.6751 12.4705 80.8836Z" fill="#D3B68A"/>
<path d="M84.4016 72.6875L89.1824 68.4154L90.0393 69.0105C90.7102 68.7691 90.9019 67.8092 91.8772 68L91.9674 69.0554C91.6235 69.4203 91.2853 69.7908 90.9244 70.1445C90.8342 70.2343 90.6313 70.2399 90.5636 70.341C89.8815 71.3908 88.799 71.9578 87.7448 72.5079C86.4876 73.1816 85.563 74.2987 84.2382 74.8825C84.8301 73.8721 85.8054 73.1984 86.3579 72.1206L83.5898 74.2201C83.5165 73.3556 84.2551 73.1647 84.4016 72.6875Z" fill="#D3B68A"/>
<path d="M95.8236 77.5319C94.6961 78.2448 93.8109 78.8792 92.6214 78.8792C91.8265 78.8792 91.0259 78.8399 90.2367 78.8792C89.0732 78.9425 87.9161 78.6696 86.9048 78.0933C86.933 76.9705 87.9929 76.9031 88.5961 76.2295L88.7652 77.0603L94.4875 77.6217C94.8934 77.734 95.0738 77.0266 95.8236 77.5319Z" fill="#D3B68A"/>
<path d="M2.15349 84.7853C2.0931 84.8532 2.03664 84.9244 1.98436 84.9987L1.71375 87.6765C1.25083 87.8931 0.726656 87.9427 0.231036 87.8168C-0.332732 86.5818 1.1387 86.0148 1.12179 84.965L0.721514 84.0499L0.992122 81.243L1.71375 80.7715L2.65524 81.5855C1.83214 82.5398 2.1253 83.6177 2.15349 84.7853Z" fill="#D3B68A"/>
<path d="M153.181 52.8034L140.429 63.6942L140.243 63.5594C140.309 63.344 140.414 63.1424 140.553 62.9644C141.763 61.879 142.99 60.8105 144.234 59.7589C144.905 59.1975 145.61 58.6361 146.281 58.0747C148.115 56.5029 149.94 54.9198 151.755 53.3255C152.099 52.9834 152.507 52.7124 152.956 52.5283L153.181 52.8034Z" fill="#D3B68A"/>
<path d="M51.9288 90.9546L53.3438 90.1743C53.5975 90.6683 53.5975 90.6683 52.8195 91.4823L53.8738 92.7903C53.6877 93.5594 53.5017 94.3397 53.31 95.2604L52.2501 94.772L51.5849 94.8787C51.4013 94.3684 51.3414 93.8221 51.4101 93.2844C51.6243 92.5826 52.4925 92.6332 52.47 91.7293L50.7505 92.9981C50.9196 92.5377 50.9422 92.2402 51.0944 92.1111C51.5003 91.7911 51.9682 91.5497 51.9682 90.9434L51.9288 90.9546Z" fill="#D3B68A"/>
<path d="M135.344 78.7783C132.604 78.4527 130.659 77.1727 128.539 76.1903C128.409 75.7637 127.795 75.4381 128.33 74.7812L133.805 77.4253L133.895 77.2682L135.344 78.7783Z" fill="#D3B68A"/>
</g>
<defs>
<clipPath id="clip0_927_471">
<rect width="172" height="98" fill="white"/>
</clipPath>
</defs>
</svg>
